<svg width="103" height="25" viewBox="0 0 103 25" fill="none" xmlns="http://www.w3.org/2000/svg">
<g clip-path="url(#clip0_2908_47532)">
<path d="M0 15.2888H0.970537C0.970537 18.4989 3.44501 20.5807 7.16935 20.5807C10.5639 20.5807 12.9436 18.6436 12.9436 15.7908C12.9436 12.5587 10.0746 11.9403 7.01627 11.262C3.83954 10.5713 0.445027 9.81437 0.445027 6.03625C0.445027 2.76797 3.03628 0.65625 7.01627 0.65625C10.9963 0.65625 13.3824 2.90644 13.3824 6.32736H12.4339C12.4339 3.4446 10.2514 1.5815 7.00207 1.5815C3.75274 1.5815 1.40136 3.32186 1.40136 6.00793C1.40136 9.09368 4.29245 9.71366 7.30033 10.3683C10.5355 11.089 13.9221 11.8537 13.9221 15.7845C13.9221 19.2494 11.1115 21.5201 7.17724 21.5201C2.869 21.5201 0 19.0527 0 15.2888Z" fill="#454C58"/>
<path d="M23.9833 5.2494C27.7866 5.2494 30.1663 7.85522 30.1663 11.9764V21.2793H29.2321V12.1353C29.2321 8.38708 27.1885 6.12273 23.8081 6.12273C20.4278 6.12273 17.8366 8.88118 17.8366 12.1211V21.2793H16.9023V0H17.8366V9.11249C18.9271 6.83083 21.2974 5.2494 23.9833 5.2494Z" fill="#454C58"/>
<path d="M52.0117 13.4184C52.0117 8.71656 55.5388 5.25 60.2179 5.25C64.897 5.25 68.4225 8.74488 68.4225 13.4184C68.4225 18.0918 64.9191 21.5851 60.2179 21.5851C55.5167 21.5851 52.0117 18.0918 52.0117 13.4184ZM67.474 13.4184C67.474 9.26101 64.3857 6.16109 60.2179 6.16109C56.0501 6.16109 52.9617 9.24055 52.9617 13.4184C52.9617 17.5962 56.0722 20.6756 60.2179 20.6756C64.3636 20.6756 67.474 17.5741 67.474 13.4184Z" fill="#454C58"/>
<path d="M84.2445 11.9754V21.2783H83.3102V12.1343C83.3102 8.38611 81.2666 6.12175 77.8863 6.12175C74.506 6.12175 71.9147 8.8802 71.9147 12.1202V21.2783H70.9805V5.55527H71.7174L71.8831 9.18076C72.9578 6.8629 75.3503 5.25 78.0614 5.25C81.8647 5.25 84.2445 7.92191 84.2445 11.977V11.9754Z" fill="#454C58"/>
<path d="M102.999 5.55684V21.2799H102.181L102.077 17.1744C100.813 19.8338 98.1841 21.5851 94.8811 21.5851C90.2967 21.5851 86.8359 18.0619 86.8359 13.4184C86.8359 8.77478 90.2967 5.25 94.8811 5.25C98.1889 5.25 100.82 6.9998 102.082 9.66541L102.204 5.55684H102.999ZM102.05 13.4184C102.05 9.22482 99.0505 6.16109 94.9332 6.16109C90.8159 6.16109 87.786 9.29877 87.786 13.4184C87.786 17.5379 90.8585 20.6756 94.9332 20.6756C99.0079 20.6756 102.05 17.6119 102.05 13.4184Z" fill="#454C58"/>
<path d="M47.5924 12.6919C47.3557 12.1836 47.0527 11.6958 46.6787 11.2442L46.6692 11.2316C45.1668 9.42203 42.907 8.60535 40.7308 8.85712C39.847 8.96097 38.9775 9.2395 38.1758 9.70055C38.0369 9.78237 37.8981 9.86892 37.7623 9.96019C37.5177 10.1238 37.2842 10.3064 37.0554 10.5062C36.6987 10.8241 36.3831 11.1734 36.1101 11.5479C35.1553 12.854 34.7245 14.4574 34.8492 16.0326C34.9438 17.2536 35.3778 18.459 36.1606 19.4975C36.6387 20.1317 37.2084 20.6573 37.8349 21.0664C38.28 21.3559 38.7534 21.5919 39.2442 21.7682C39.4241 21.8296 39.604 21.8878 39.7871 21.9366C40.3457 22.0845 40.9217 22.1616 41.4993 22.1616C42.0769 22.1616 42.6561 22.0908 43.2194 21.9429C43.2194 21.9429 43.2205 21.9418 43.2226 21.9397C43.2226 21.9397 43.2336 21.9397 43.2368 21.9366C43.3662 21.9035 43.4925 21.8657 43.6219 21.8248C43.8302 21.7572 44.0432 21.9114 44.0401 22.1333C44.0353 22.503 44.0069 22.8949 43.9675 23.2694C43.9343 23.5951 43.8933 23.9114 43.8523 24.1899C43.8444 24.2465 43.846 24.2985 43.8617 24.3457C43.9122 24.5455 44.1142 24.6698 44.3083 24.6399C44.3541 24.6321 44.3999 24.6179 44.4409 24.5927C44.4677 24.577 44.4961 24.5581 44.5198 24.5329C44.8765 24.1946 45.1968 23.8358 45.484 23.4645V23.4676C45.484 23.4676 45.503 23.444 45.5377 23.3968C46.0348 22.7564 46.4404 22.0845 46.767 21.4204C46.8901 21.1907 47.0116 20.9468 47.1332 20.6871C48.17 18.4968 49.0569 15.3732 47.594 12.6919H47.5924ZM38.2042 16.2591C37.685 16.2591 37.2621 15.8359 37.2621 15.3182C37.2621 14.8005 37.685 14.3787 38.2042 14.3787C38.7234 14.3787 39.1479 14.8005 39.1479 15.3182C39.1479 15.8359 38.725 16.2591 38.2042 16.2591ZM41.4551 16.2591C40.9343 16.2591 40.5114 15.8359 40.5114 15.3182C40.5114 14.8005 40.9343 14.3787 41.4551 14.3787C41.9759 14.3787 42.3972 14.8005 42.3972 15.3182C42.3972 15.8359 41.9743 16.2591 41.4551 16.2591ZM44.7044 16.2591C44.1852 16.2591 43.7623 15.8359 43.7623 15.3182C43.7623 14.8005 44.1852 14.3787 44.7044 14.3787C45.2236 14.3787 45.6466 14.8005 45.6466 15.3182C45.6466 15.8359 45.2236 16.2591 44.7044 16.2591Z" fill="url(#paint0_linear_2908_47532)"/>
<path d="M49.4957 11.056C51.1433 14.5745 49.9155 18.4486 48.4447 21.259C50.0922 17.7673 50.2406 14.5808 48.8771 12.0427C48.5867 11.4274 48.2206 10.8499 47.7882 10.3275L47.7787 10.3149C46.0128 8.18744 43.3158 7.10956 40.5636 7.42899C39.4574 7.55802 38.4142 7.90263 37.4579 8.45338C37.2859 8.55251 37.1154 8.65794 36.9513 8.76966C36.6673 8.96321 36.3785 9.18508 36.1023 9.42898C35.6699 9.81293 35.2833 10.2394 34.9455 10.7004C33.803 12.263 33.2585 14.1937 33.4132 16.1418C33.5347 17.6744 34.0871 19.1316 35.0103 20.3558C35.5058 21.012 36.0881 21.5832 36.7477 22.0568C36.4132 21.8711 36.0897 21.6587 35.7804 21.4274C34.9787 20.8279 34.2622 20.0804 33.6767 19.1945C32.7173 17.7453 32.2391 16.0993 32.2123 14.4612C32.176 12.3479 32.8861 10.2441 34.2685 8.58084C34.6646 8.10405 35.116 7.66345 35.6178 7.27006C35.9366 7.01986 36.2664 6.79799 36.6041 6.59972C37.8714 5.84913 39.2633 5.44945 40.6599 5.37234C43.5857 5.21499 46.5336 6.49272 48.3879 9.03245L48.3989 9.04818C48.8597 9.6839 49.2227 10.3574 49.4957 11.0576V11.056Z" fill="url(#paint1_linear_2908_47532)"/>
</g>
<defs>
<linearGradient id="paint0_linear_2908_47532" x1="40.0254" y1="4.99403" x2="43.0367" y2="25.5378" gradientUnits="userSpaceOnUse">
<stop stop-color="#E0F697"/>
<stop offset="1" stop-color="#0091E1"/>
</linearGradient>
<linearGradient id="paint1_linear_2908_47532" x1="39.8487" y1="5.012" x2="42.8616" y2="25.5558" gradientUnits="userSpaceOnUse">
<stop stop-color="#E0F697"/>
<stop offset="1" stop-color="#0091E1"/>
</linearGradient>
<clipPath id="clip0_2908_47532">
<rect width="103" height="25" fill="white"/>
</clipPath>
</defs>
</svg>
