<svg width="20" height="20" viewBox="0 0 20 20" fill="none" xmlns="http://www.w3.org/2000/svg">
<path d="M5.3999 15.8333V14.7667H10.6098V15.8333H5.3999ZM5.3999 13.7V12.6333H13.5869V13.7H5.3999ZM5.3999 11.5667V10.5H13.5869V11.5667H5.3999Z" fill="black"/>
<path d="M5.3999 6.5L6.7799 8.5L9.0799 6.5L10.9199 8.5L13.2199 6" stroke="black"/>
<path d="M3.77778 20C3.28889 20 2.87037 19.8042 2.52222 19.4125C2.17407 19.0208 2 18.55 2 18V4C2 3.45 2.17407 2.97917 2.52222 2.5875C2.87037 2.19583 3.28889 2 3.77778 2H7.51111C7.7037 1.4 8.02593 0.916667 8.47778 0.55C8.92963 0.183333 9.43704 0 10 0C10.563 0 11.0704 0.183333 11.5222 0.55C11.9741 0.916667 12.2963 1.4 12.4889 2H16.2222C16.7111 2 17.1296 2.19583 17.4778 2.5875C17.8259 2.97917 18 3.45 18 4V18C18 18.55 17.8259 19.0208 17.4778 19.4125C17.1296 19.8042 16.7111 20 16.2222 20H3.77778ZM3.77778 18H16.2222V4H3.77778V18ZM10 3.25C10.1926 3.25 10.3519 3.17917 10.4778 3.0375C10.6037 2.89583 10.6667 2.71667 10.6667 2.5C10.6667 2.28333 10.6037 2.10417 10.4778 1.9625C10.3519 1.82083 10.1926 1.75 10 1.75C9.80741 1.75 9.64815 1.82083 9.52222 1.9625C9.3963 2.10417 9.33333 2.28333 9.33333 2.5C9.33333 2.71667 9.3963 2.89583 9.52222 3.0375C9.64815 3.17917 9.80741 3.25 10 3.25Z" fill="black"/>
</svg>
