<svg width="20" height="20" viewBox="0 0 20 20" fill="none" xmlns="http://www.w3.org/2000/svg">
<g clip-path="url(#clip0_3078_49204)">
<path d="M15 8.57143C15.34 8.57143 15.67 8.6 16 8.64762V1.90476C16 0.857143 15.1 0 14 0H2C0.9 0 0 0.857143 0 1.90476V17.1429C0 18.1905 0.9 19.0476 2 19.0476H9.26C8.47 17.9714 8 16.6571 8 15.2381C8 11.5524 11.13 8.57143 15 8.57143ZM4 8.57143V1.90476H9V8.57143L6.5 7.14286L4 8.57143Z" fill="black"/>
<path d="M15 10.4766C12.24 10.4766 10 12.6099 10 15.2385C10 17.867 12.24 20.0004 15 20.0004C17.76 20.0004 20 17.867 20 15.2385C20 12.6099 17.76 10.4766 15 10.4766ZM13.75 17.6194V12.8575L17.75 15.2385L13.75 17.6194Z" fill="black"/>
</g>
<defs>
<clipPath id="clip0_3078_49204">
<rect width="20" height="20" fill="white"/>
</clipPath>
</defs>
</svg>
