<svg width="100" height="100" viewBox="0 0 100 100" fill="none" xmlns="http://www.w3.org/2000/svg">
<g clip-path="url(#clip0_4430_53993)">
<path d="M58.8532 49.9646L67.6907 41.1271C68.9125 39.9022 68.9125 37.927 67.6907 36.7084L63.272 32.2865C62.0502 31.0678 60.075 31.0647 58.8532 32.2865L50.0126 41.1271L41.1782 32.2928C39.9533 31.0678 37.975 31.0678 36.7532 32.2865L32.3345 36.7084C31.1127 37.927 31.1158 39.9085 32.3407 41.1303L41.1751 49.9646L32.3561 58.7833C31.1343 60.0051 31.1343 61.9802 32.3561 63.202L36.7749 67.6239C37.9967 68.8426 39.9718 68.8457 41.1936 67.6239L50.0122 58.8053L58.8934 67.6896C60.1184 68.9146 62.0967 68.9146 63.3185 67.6928L67.7372 63.274C68.959 62.0522 68.9559 60.0739 67.7341 58.849L58.8532 49.9646ZM50 0.00195312C22.3842 0.00195312 0 22.3866 0 49.9989C0 77.6147 22.3842 99.999 50 99.999C77.6158 99.999 100 77.6147 100 49.9989C100 22.3897 77.6154 0.00195312 50 0.00195312ZM50 90.6242C27.5626 90.6242 9.37515 72.4367 9.37515 49.9992C9.37515 27.5618 27.5626 9.37398 50 9.37398C72.4374 9.37398 90.6249 27.5615 90.6249 49.9989C90.6249 72.4363 72.4374 90.6242 50 90.6242Z" fill="#E90E0E"/>
</g>
<defs>
<clipPath id="clip0_4430_53993">
<rect width="100" height="100" fill="white"/>
</clipPath>
</defs>
</svg>
