<svg width="21" height="21" viewBox="0 0 21 21" fill="none" xmlns="http://www.w3.org/2000/svg">
<g clip-path="url(#clip0_2823_51038)">
<path d="M3.93475 13.3702C3.61386 14.7404 4.46698 16.1162 5.836 16.4371C6.03146 16.4832 6.22891 16.5059 6.42484 16.5059C6.89343 16.5059 7.3541 16.3758 7.76242 16.1228C8.3421 15.7636 8.74707 15.2001 8.90256 14.5361C9.2236 13.166 8.37109 11.7902 7.00192 11.469C5.6329 11.148 4.25702 12.0008 3.93475 13.3697V13.3702ZM4.69556 13.5487C4.91925 12.5989 5.87369 12.0075 6.82355 12.2298C7.7731 12.4526 8.36438 13.4071 8.1416 14.3579C8.03372 14.8185 7.75281 15.2093 7.35089 15.4585C6.94913 15.7073 6.47488 15.7847 6.01468 15.6763C5.06482 15.4537 4.47324 14.4993 4.69556 13.5487Z" fill="black"/>
<path d="M4.61343 6.22114H13.4786C13.6944 6.22114 13.8694 6.04613 13.8694 5.83037C13.8694 5.61447 13.6945 5.43945 13.4786 5.43945H4.61343C4.39752 5.43945 4.22266 5.61447 4.22266 5.83037C4.22266 6.04613 4.39752 6.22114 4.61343 6.22114Z" fill="black"/>
<path d="M4.61343 8.2581H11.7642C11.9801 8.2581 12.1549 8.08324 12.1549 7.86733C12.1549 7.65158 11.9801 7.47656 11.7642 7.47656H4.61343C4.39752 7.47656 4.22266 7.65158 4.22266 7.86733C4.22266 8.08324 4.39752 8.2581 4.61343 8.2581Z" fill="black"/>
<path d="M5.88918 14.8058C5.96166 14.874 6.05749 14.9117 6.15667 14.9117C6.16171 14.9117 6.16689 14.9117 6.17208 14.9114C6.27676 14.9073 6.37548 14.8613 6.44583 14.7838L7.47839 13.6478C7.62365 13.4881 7.6119 13.2409 7.45214 13.0958C7.29238 12.9505 7.04519 12.9624 6.90008 13.122L6.1347 13.9641L5.91619 13.7589C5.75887 13.6112 5.51153 13.6188 5.36382 13.7762C5.21597 13.9335 5.22375 14.1808 5.38107 14.3285L5.88918 14.8058Z" fill="black"/>
<path d="M4.61343 10.2972H10.6519C10.8677 10.2972 11.0427 10.1223 11.0427 9.90639C11.0427 9.69064 10.8677 9.51562 10.6519 9.51562H4.61343C4.39752 9.51562 4.22266 9.69064 4.22266 9.90639C4.22266 10.1223 4.39752 10.2972 4.61343 10.2972Z" fill="black"/>
<path d="M19.8835 15.2281C19.7803 14.0931 19.3796 13.0974 18.7551 12.4243C18.3939 12.0352 17.9677 11.7572 17.4846 11.594C18.0312 11.0486 18.3852 10.256 18.5402 9.22496C18.5565 9.11571 18.526 9.00463 18.456 8.91933C18.3861 8.83389 18.2831 8.78201 18.1728 8.77667C17.2351 8.73089 16.46 8.9175 15.8606 9.33177V3.42601C15.8606 2.43636 15.0553 1.63117 14.0653 1.63117H12.257V1.52375C12.257 1.12948 11.9362 0.808594 11.5419 0.808594H6.02466C5.63037 0.808594 5.30963 1.12948 5.30963 1.52375V1.63117H3.50238C2.51239 1.63117 1.70703 2.43636 1.70703 3.42601V9.17689C1.70703 9.39265 1.88205 9.56766 2.09781 9.56766C2.31357 9.56766 2.48859 9.39265 2.48859 9.17689V3.42601C2.48859 2.86725 2.9433 2.41271 3.50238 2.41271H5.30963V2.58665C5.30963 2.98108 5.63037 3.30181 6.02466 3.30181H11.5419C11.9362 3.30181 12.257 2.98108 12.257 2.58665V2.41271H14.0653C14.6242 2.41271 15.0789 2.86725 15.0789 3.42601V10.1545C14.9895 10.2976 14.9143 10.4433 14.8525 10.5875C14.4622 10.0907 13.8166 9.75107 12.8411 9.79852C12.7307 9.80386 12.6279 9.85559 12.5579 9.94103C12.4878 10.0263 12.4572 10.1373 12.4735 10.2465C12.546 10.7326 12.6859 11.1414 12.89 11.4719C12.8551 11.4779 12.8202 11.4841 12.7857 11.4911C12.1433 11.6217 11.5877 11.9358 11.1344 12.4243C10.5097 13.0974 10.109 14.0931 10.0058 15.2281C9.92374 16.1327 10.0325 17.0624 10.3124 17.8974H3.50238C2.9433 17.8974 2.48859 17.4424 2.48859 16.883V12.2969C2.48859 12.0812 2.31357 11.9062 2.09781 11.9062C1.88205 11.9062 1.70703 12.0812 1.70703 12.2969V16.883C1.70703 17.8732 2.51239 18.6789 3.50238 18.6789H10.6395C11.3365 20.0367 12.4924 20.808 13.8529 20.808H16.0366C17.4958 20.808 18.7197 19.9209 19.3944 18.3743C19.8079 17.4265 19.9816 16.3091 19.8835 15.2281ZM11.4754 2.52043H6.09119V1.59013H11.4754V2.52043ZM17.6824 9.55698C17.4654 10.489 17.0418 11.102 16.3973 11.424C16.0717 11.4252 15.7315 11.4678 15.3783 11.5525C15.4451 11.1603 15.613 10.6193 16.0323 10.2015C16.4257 9.80951 16.9794 9.59345 17.6824 9.55698ZM14.1416 10.9626C14.3172 11.1382 14.4182 11.3527 14.4765 11.5447C14.2859 11.5004 14.0993 11.4682 13.9167 11.4483C13.6559 11.2702 13.468 10.9896 13.3489 10.5974C13.6801 10.6443 13.9456 10.7665 14.1416 10.9626ZM18.6782 18.0618C18.358 18.7956 17.5891 20.0265 16.0366 20.0265H13.8529C12.3519 20.0265 11.5834 18.876 11.2447 18.1365C11.2441 18.1351 11.2435 18.1337 11.2427 18.1322C11.2319 18.1084 11.2213 18.0847 11.2113 18.0617C10.4506 16.3181 10.6684 14.0754 11.7073 12.9559C12.1692 12.4581 12.7712 12.2069 13.4836 12.2069C13.8929 12.2069 14.3386 12.2898 14.8151 12.4565C14.8981 12.4855 14.9913 12.4855 15.0743 12.4565C16.3802 11.9995 17.4549 12.1721 18.1821 12.9559C19.2209 14.0754 19.4388 16.3183 18.6782 18.0618Z" fill="black"/>
<path d="M2.09781 11.1272C2.31357 11.1272 2.48859 10.9523 2.48859 10.7364V10.7287C2.48859 10.5129 2.31357 10.3379 2.09781 10.3379C1.88205 10.3379 1.70703 10.5129 1.70703 10.7287V10.7364C1.70703 10.9522 1.88205 11.1272 2.09781 11.1272Z" fill="black"/>
</g>
<defs>
<clipPath id="clip0_2823_51038">
<rect width="20" height="19.9995" fill="white" transform="translate(0.808594 0.808594)"/>
</clipPath>
</defs>
</svg>
