<svg width="18" height="18" viewBox="0 0 18 18" fill="none" xmlns="http://www.w3.org/2000/svg">
<path d="M3 7.75C3 7.45453 3.0582 7.16194 3.17127 6.88896C3.28434 6.61598 3.45008 6.36794 3.65901 6.15901C3.86794 5.95008 4.11598 5.78434 4.38896 5.67127C4.66194 5.5582 4.95453 5.5 5.25 5.5C5.54547 5.5 5.83806 5.5582 6.11104 5.67127C6.38402 5.78434 6.63206 5.95008 6.84099 6.15901C7.04992 6.36794 7.21566 6.61598 7.32873 6.88896C7.4418 7.16194 7.5 7.45453 7.5 7.75C7.5 8.34674 7.26295 8.91903 6.84099 9.34099C6.41903 9.76295 5.84674 10 5.25 10C4.65326 10 4.08097 9.76295 3.65901 9.34099C3.23705 8.91903 3 8.34674 3 7.75ZM5.25 7C5.05109 7 4.86032 7.07902 4.71967 7.21967C4.57902 7.36032 4.5 7.55109 4.5 7.75C4.5 7.94891 4.57902 8.13968 4.71967 8.28033C4.86032 8.42098 5.05109 8.5 5.25 8.5C5.44891 8.5 5.63968 8.42098 5.78033 8.28033C5.92098 8.13968 6 7.94891 6 7.75C6 7.55109 5.92098 7.36032 5.78033 7.21967C5.63968 7.07902 5.44891 7 5.25 7ZM5.25 11C4.65326 11 4.08097 11.2371 3.65901 11.659C3.23705 12.081 3 12.6533 3 13.25C3 13.8467 3.23705 14.419 3.65901 14.841C4.08097 15.2629 4.65326 15.5 5.25 15.5C5.84674 15.5 6.41903 15.2629 6.84099 14.841C7.26295 14.419 7.5 13.8467 7.5 13.25C7.5 12.6533 7.26295 12.081 6.84099 11.659C6.41903 11.2371 5.84674 11 5.25 11ZM4.5 13.25C4.5 13.0511 4.57902 12.8603 4.71967 12.7197C4.86032 12.579 5.05109 12.5 5.25 12.5C5.44891 12.5 5.63968 12.579 5.78033 12.7197C5.92098 12.8603 6 13.0511 6 13.25C6 13.4489 5.92098 13.6397 5.78033 13.7803C5.63968 13.921 5.44891 14 5.25 14C5.05109 14 4.86032 13.921 4.71967 13.7803C4.57902 13.6397 4.5 13.4489 4.5 13.25ZM9 7.75C9 7.55109 9.07902 7.36032 9.21967 7.21967C9.36032 7.07902 9.55109 7 9.75 7H14.25C14.4489 7 14.6397 7.07902 14.7803 7.21967C14.921 7.36032 15 7.55109 15 7.75C15 7.94891 14.921 8.13968 14.7803 8.28033C14.6397 8.42098 14.4489 8.5 14.25 8.5H9.75C9.55109 8.5 9.36032 8.42098 9.21967 8.28033C9.07902 8.13968 9 7.94891 9 7.75ZM9.75 12.5C9.55109 12.5 9.36032 12.579 9.21967 12.7197C9.07902 12.8603 9 13.0511 9 13.25C9 13.4489 9.07902 13.6397 9.21967 13.7803C9.36032 13.921 9.55109 14 9.75 14H14.25C14.4489 14 14.6397 13.921 14.7803 13.7803C14.921 13.6397 15 13.4489 15 13.25C15 13.0511 14.921 12.8603 14.7803 12.7197C14.6397 12.579 14.4489 12.5 14.25 12.5H9.75ZM3 3.75C3 3.55109 3.07902 3.36032 3.21967 3.21967C3.36032 3.07902 3.55109 3 3.75 3H14.25C14.4489 3 14.6397 3.07902 14.7803 3.21967C14.921 3.36032 15 3.55109 15 3.75C15 3.94891 14.921 4.13968 14.7803 4.28033C14.6397 4.42098 14.4489 4.5 14.25 4.5H3.75C3.55109 4.5 3.36032 4.42098 3.21967 4.28033C3.07902 4.13968 3 3.94891 3 3.75ZM3.25 0C2.38805 0 1.5614 0.34241 0.951903 0.951903C0.34241 1.5614 0 2.38805 0 3.25V14.75C0 15.612 0.34241 16.4386 0.951903 17.0481C1.5614 17.6576 2.38805 18 3.25 18H14.75C15.612 18 16.4386 17.6576 17.0481 17.0481C17.6576 16.4386 18 15.612 18 14.75V3.25C18 2.38805 17.6576 1.5614 17.0481 0.951903C16.4386 0.34241 15.612 0 14.75 0H3.25ZM1.5 3.25C1.5 2.284 2.284 1.5 3.25 1.5H14.75C15.716 1.5 16.5 2.284 16.5 3.25V14.75C16.5 15.2141 16.3156 15.6592 15.9874 15.9874C15.6592 16.3156 15.2141 16.5 14.75 16.5H3.25C2.78587 16.5 2.34075 16.3156 2.01256 15.9874C1.68437 15.6592 1.5 15.2141 1.5 14.75V3.25Z" fill="black"/>
</svg>
