<svg width="150" height="38" viewBox="0 0 150 38" fill="none" xmlns="http://www.w3.org/2000/svg">
<path d="M0 22.1885H1.4134C1.4134 26.8479 5.01701 29.8697 10.4408 29.8697C15.3843 29.8697 18.85 27.0581 18.85 22.9171C18.85 18.2257 14.6718 17.3281 10.2179 16.3436C5.59156 15.3409 0.648097 14.2423 0.648097 8.75835C0.648097 4.0144 4.42177 0.949219 10.2179 0.949219C16.014 0.949219 19.4889 4.21539 19.4889 9.18089H18.1076C18.1076 4.99654 14.9292 2.29223 10.1972 2.29223C5.46516 2.29223 2.04082 4.81838 2.04082 8.71723C2.04082 13.1962 6.25115 14.0961 10.6315 15.0463C15.3429 16.0924 20.2749 17.2024 20.2749 22.908C20.2749 27.9374 16.1817 31.2333 10.4523 31.2333C4.17816 31.2333 0 27.6519 0 22.1885Z" fill="white"/>
<path d="M34.9273 7.61955C40.466 7.61955 43.9317 11.4019 43.9317 17.3838V30.8871H42.5712V17.6145C42.5712 12.1739 39.595 8.8872 34.6722 8.8872C29.7494 8.8872 25.9758 12.8911 25.9758 17.594V30.8871H24.6152V0H25.9758V13.2269C27.5638 9.91501 31.0158 7.61955 34.9273 7.61955Z" fill="white"/>
<path d="M75.7441 19.4736C75.7441 12.6489 80.8807 7.61719 87.6949 7.61719C94.5091 7.61719 99.6433 12.69 99.6433 19.4736C99.6433 26.2572 94.5413 31.3278 87.6949 31.3278C80.8485 31.3278 75.7441 26.2572 75.7441 19.4736ZM98.2621 19.4736C98.2621 13.4392 93.7645 8.93965 87.6949 8.93965C81.6253 8.93965 77.1277 13.4095 77.1277 19.4736C77.1277 25.5378 81.6575 30.0076 87.6949 30.0076C93.7323 30.0076 98.2621 25.5058 98.2621 19.4736Z" fill="white"/>
<path d="M122.686 17.3811V30.8844H121.325V17.6118C121.325 12.1712 118.349 8.8845 113.426 8.8845C108.503 8.8845 104.73 12.8884 104.73 17.5913V30.8844H103.369V8.06224H104.442L104.684 13.3247C106.249 9.96028 109.733 7.61914 113.681 7.61914C119.22 7.61914 122.686 11.4974 122.686 17.3834V17.3811Z" fill="white"/>
<path d="M149.999 8.06258V30.8847H148.809L148.657 24.9256C146.816 28.7857 142.987 31.3278 138.177 31.3278C131.501 31.3278 126.461 26.2138 126.461 19.4736C126.461 12.7334 131.501 7.61719 138.177 7.61719C142.994 7.61719 146.825 10.157 148.664 14.0262L148.841 8.06258H149.999ZM148.618 19.4736C148.618 13.3867 144.249 8.93965 138.253 8.93965C132.257 8.93965 127.844 13.494 127.844 19.4736C127.844 25.4532 132.319 30.0076 138.253 30.0076C144.187 30.0076 148.618 25.5606 148.618 19.4736Z" fill="white"/>
<path d="M69.3075 18.4083C68.9627 17.6706 68.5215 16.9625 67.9768 16.307L67.963 16.2887C65.7751 13.6621 62.4841 12.4767 59.3148 12.8421C58.0278 12.9929 56.7615 13.3971 55.594 14.0664C55.3918 14.1851 55.1895 14.3107 54.9919 14.4432C54.6357 14.6808 54.2955 14.9457 53.9623 15.2358C53.4429 15.6972 52.9832 16.2042 52.5856 16.7478C51.1952 18.6436 50.5678 20.971 50.7494 23.2573C50.8873 25.0297 51.5193 26.7793 52.6592 28.2868C53.3556 29.2072 54.1852 29.9701 55.0976 30.564C55.7457 30.9842 56.4352 31.3268 57.1499 31.5826C57.4119 31.6717 57.6739 31.7562 57.9405 31.827C58.7541 32.0417 59.5929 32.1537 60.4341 32.1537C61.2752 32.1537 62.1186 32.0509 62.9391 31.8362C62.9391 31.8362 62.9406 31.8347 62.9437 31.8316C62.9437 31.8316 62.9598 31.8316 62.9644 31.827C63.1528 31.7791 63.3367 31.7243 63.5252 31.6649C63.8285 31.5667 64.1388 31.7905 64.1342 32.1125C64.1273 32.6493 64.0859 33.218 64.0285 33.7616C63.9802 34.2344 63.9205 34.6935 63.8607 35.0978C63.8492 35.18 63.8515 35.2554 63.8745 35.3239C63.948 35.614 64.2422 35.7944 64.5249 35.751C64.5915 35.7396 64.6582 35.719 64.7179 35.6825C64.757 35.6597 64.7984 35.6322 64.8328 35.5957C65.3522 35.1046 65.8188 34.5839 66.2371 34.0448V34.0494C66.2371 34.0494 66.2646 34.0151 66.3152 33.9466C67.0391 33.017 67.6298 32.0417 68.1055 31.0779C68.2848 30.7444 68.4617 30.3904 68.6387 30.0135C70.1486 26.8341 71.4402 22.3003 69.3098 18.4083H69.3075ZM55.6354 23.5862C54.8793 23.5862 54.2633 22.9718 54.2633 22.2204C54.2633 21.4689 54.8793 20.8568 55.6354 20.8568C56.3915 20.8568 57.0097 21.4689 57.0097 22.2204C57.0097 22.9718 56.3938 23.5862 55.6354 23.5862ZM60.3697 23.5862C59.6113 23.5862 58.9954 22.9718 58.9954 22.2204C58.9954 21.4689 59.6113 20.8568 60.3697 20.8568C61.1281 20.8568 61.7417 21.4689 61.7417 22.2204C61.7417 22.9718 61.1258 23.5862 60.3697 23.5862ZM65.1017 23.5862C64.3456 23.5862 63.7297 22.9718 63.7297 22.2204C63.7297 21.4689 64.3456 20.8568 65.1017 20.8568C65.8578 20.8568 66.4738 21.4689 66.4738 22.2204C66.4738 22.9718 65.8578 23.5862 65.1017 23.5862Z" fill="url(#paint0_linear_2946_48848)"/>
<path d="M72.0822 16.0442C74.4815 21.1513 72.6935 26.7746 70.5515 30.8539C72.9509 25.7856 73.1669 21.1604 71.1813 17.4763C70.7584 16.5832 70.2252 15.745 69.5955 14.9867L69.5817 14.9684C67.01 11.8804 63.0823 10.3158 59.0743 10.7795C57.4632 10.9667 55.9441 11.4669 54.5514 12.2664C54.3009 12.4103 54.0526 12.5633 53.8136 12.7255C53.4 13.0064 52.9794 13.3284 52.5772 13.6825C51.9475 14.2398 51.3844 14.8587 50.8926 15.528C49.2287 17.796 48.4358 20.5985 48.661 23.4262C48.838 25.6508 49.6424 27.7659 50.9868 29.5428C51.7085 30.4953 52.5565 31.3244 53.5172 32.0119C53.0299 31.7424 52.5588 31.434 52.1084 31.0983C50.9409 30.228 49.8975 29.1431 49.0448 27.8572C47.6475 25.7536 46.9512 23.3645 46.9121 20.9868C46.8592 17.9194 47.8934 14.8656 49.9067 12.4514C50.4835 11.7593 51.1408 11.1198 51.8716 10.5488C52.3359 10.1856 52.8162 9.86355 53.308 9.57577C55.1535 8.48628 57.1805 7.90613 59.2144 7.79422C63.4753 7.56581 67.7684 9.42045 70.4688 13.1069L70.4849 13.1297C71.156 14.0525 71.6846 15.0301 72.0822 16.0464V16.0442Z" fill="url(#paint1_linear_2946_48848)"/>
<defs>
<linearGradient id="paint0_linear_2946_48848" x1="58.2875" y1="7.2348" x2="62.6447" y2="37.0584" gradientUnits="userSpaceOnUse">
<stop stop-color="#E0F697"/>
<stop offset="1" stop-color="#0091E1"/>
</linearGradient>
<linearGradient id="paint1_linear_2946_48848" x1="58.0332" y1="7.27117" x2="62.3926" y2="37.0948" gradientUnits="userSpaceOnUse">
<stop stop-color="#E0F697"/>
<stop offset="1" stop-color="#0091E1"/>
</linearGradient>
</defs>
</svg>
