<svg width="50" height="50" viewBox="0 0 50 50" fill="none" xmlns="http://www.w3.org/2000/svg">
<path d="M25 0C20.0555 0 15.222 1.46622 11.1108 4.21326C6.99953 6.96029 3.79521 10.8648 1.90302 15.4329C0.0108321 20.0011 -0.484251 25.0277 0.480379 29.8772C1.44501 34.7268 3.82603 39.1813 7.32234 42.6777C10.8187 46.174 15.2732 48.555 20.1228 49.5196C24.9723 50.4842 29.9989 49.9892 34.5671 48.097C39.1352 46.2048 43.0397 43.0005 45.7867 38.8892C48.5338 34.778 50 29.9445 50 25C50 21.7169 49.3534 18.466 48.097 15.4329C46.8406 12.3998 44.9991 9.64379 42.6777 7.32233C40.3562 5.00086 37.6002 3.15938 34.5671 1.90301C31.534 0.646644 28.2831 0 25 0ZM25 45C21.0444 45 17.1776 43.827 13.8886 41.6294C10.5996 39.4318 8.03617 36.3082 6.52242 32.6537C5.00867 28.9991 4.6126 24.9778 5.38431 21.0982C6.15601 17.2186 8.06082 13.6549 10.8579 10.8579C13.6549 8.06081 17.2186 6.156 21.0982 5.38429C24.9778 4.61259 28.9992 5.00866 32.6537 6.52241C36.3082 8.03616 39.4318 10.5996 41.6294 13.8886C43.827 17.1776 45 21.0444 45 25C45 30.3043 42.8929 35.3914 39.1421 39.1421C35.3914 42.8929 30.3043 45 25 45Z" fill="black"/>
<path d="M25 10.0002C22.6794 10.0002 20.4538 10.922 18.8128 12.563C17.1719 14.2039 16.25 16.4295 16.25 18.7502C16.25 19.4132 16.5134 20.0491 16.9822 20.5179C17.4511 20.9868 18.087 21.2502 18.75 21.2502C19.413 21.2502 20.0489 20.9868 20.5178 20.5179C20.9866 20.0491 21.25 19.4132 21.25 18.7502C21.25 18.0085 21.4699 17.2835 21.882 16.6668C22.294 16.0501 22.8797 15.5694 23.5649 15.2856C24.2502 15.0018 25.0042 14.9275 25.7316 15.0722C26.459 15.2169 27.1272 15.5741 27.6516 16.0985C28.1761 16.623 28.5332 17.2911 28.6779 18.0186C28.8226 18.746 28.7484 19.5 28.4645 20.1852C28.1807 20.8705 27.7001 21.4561 27.0834 21.8682C26.4667 22.2802 25.7417 22.5002 25 22.5002C24.337 22.5002 23.7011 22.7636 23.2322 23.2324C22.7634 23.7012 22.5 24.3371 22.5 25.0002V30.0002C22.5 30.6632 22.7634 31.2991 23.2322 31.7679C23.7011 32.2368 24.337 32.5002 25 32.5002C25.663 32.5002 26.2989 32.2368 26.7678 31.7679C27.2366 31.2991 27.5 30.6632 27.5 30.0002V27.1002C29.5203 26.5102 31.2592 25.2098 32.3962 23.4388C33.5333 21.6677 33.9918 19.5453 33.6874 17.4628C33.3829 15.3803 32.336 13.4781 30.7395 12.1066C29.143 10.7352 27.1046 9.98711 25 10.0002Z" fill="black"/>
<path d="M25 40C26.3807 40 27.5 38.8807 27.5 37.5C27.5 36.1193 26.3807 35 25 35C23.6193 35 22.5 36.1193 22.5 37.5C22.5 38.8807 23.6193 40 25 40Z" fill="black"/>
</svg>
