<svg width="20" height="20" viewBox="0 0 20 20" fill="none" xmlns="http://www.w3.org/2000/svg">
<path d="M3.40909 0C2.50494 0 1.63783 0.359171 0.9985 0.9985C0.359171 1.63783 0 2.50494 0 3.40909V16.5909C0 17.4951 0.359171 18.3622 0.9985 19.0015C1.63783 19.6408 2.50494 20 3.40909 20H16.5909C17.4951 20 18.3622 19.6408 19.0015 19.0015C19.6408 18.3622 20 17.4951 20 16.5909V3.40909C20 2.50494 19.6408 1.63783 19.0015 0.9985C18.3622 0.359171 17.4951 0 16.5909 0H3.40909ZM1.36364 3.40909C1.36364 2.8666 1.57914 2.34633 1.96274 1.96274C2.34633 1.57914 2.8666 1.36364 3.40909 1.36364H16.5909C17.1334 1.36364 17.6537 1.57914 18.0373 1.96274C18.4209 2.34633 18.6364 2.8666 18.6364 3.40909V16.5909C18.6364 17.1334 18.4209 17.6537 18.0373 18.0373C17.6537 18.4209 17.1334 18.6364 16.5909 18.6364H3.40909C2.8666 18.6364 2.34633 18.4209 1.96274 18.0373C1.57914 17.6537 1.36364 17.1334 1.36364 16.5909V3.40909ZM2.72727 5.45455C2.72727 4.97233 2.91883 4.50987 3.25981 4.1689C3.60078 3.82792 4.06324 3.63636 4.54545 3.63636H15.4545C15.9368 3.63636 16.3992 3.82792 16.7402 4.1689C17.0812 4.50987 17.2727 4.97233 17.2727 5.45455V7.27273C17.2727 7.75494 17.0812 8.2174 16.7402 8.55838C16.3992 8.89935 15.9368 9.09091 15.4545 9.09091H4.54545C4.06324 9.09091 3.60078 8.89935 3.25981 8.55838C2.91883 8.2174 2.72727 7.75494 2.72727 7.27273V5.45455ZM4.54545 5C4.4249 5 4.30929 5.04789 4.22404 5.13313C4.1388 5.21838 4.09091 5.33399 4.09091 5.45455V7.27273C4.09091 7.39328 4.1388 7.5089 4.22404 7.59414C4.30929 7.67938 4.4249 7.72727 4.54545 7.72727H15.4545C15.5751 7.72727 15.6907 7.67938 15.776 7.59414C15.8612 7.5089 15.9091 7.39328 15.9091 7.27273V5.45455C15.9091 5.33399 15.8612 5.21838 15.776 5.13313C15.6907 5.04789 15.5751 5 15.4545 5H4.54545ZM2.72727 11.5909C2.72727 11.4101 2.79911 11.2367 2.92697 11.1088C3.05484 10.9809 3.22826 10.9091 3.40909 10.9091H8.40909C8.58992 10.9091 8.76334 10.9809 8.89121 11.1088C9.01907 11.2367 9.09091 11.4101 9.09091 11.5909C9.09091 11.7717 9.01907 11.9452 8.89121 12.073C8.76334 12.2009 8.58992 12.2727 8.40909 12.2727H3.40909C3.22826 12.2727 3.05484 12.2009 2.92697 12.073C2.79911 11.9452 2.72727 11.7717 2.72727 11.5909ZM3.40909 14.3182C3.22826 14.3182 3.05484 14.39 2.92697 14.5179C2.79911 14.6457 2.72727 14.8192 2.72727 15C2.72727 15.1808 2.79911 15.3543 2.92697 15.4821C3.05484 15.61 3.22826 15.6818 3.40909 15.6818H8.40909C8.58992 15.6818 8.76334 15.61 8.89121 15.4821C9.01907 15.3543 9.09091 15.1808 9.09091 15C9.09091 14.8192 9.01907 14.6457 8.89121 14.5179C8.76334 14.39 8.58992 14.3182 8.40909 14.3182H3.40909ZM11.3636 12.0455C11.3636 11.1673 12.0764 10.4545 12.9545 10.4545H15.6818C16.56 10.4545 17.2727 11.1673 17.2727 12.0455V14.7727C17.2727 15.1947 17.1051 15.5993 16.8068 15.8977C16.5084 16.196 16.1038 16.3636 15.6818 16.3636H12.9545C12.5326 16.3636 12.128 16.196 11.8296 15.8977C11.5312 15.5993 11.3636 15.1947 11.3636 14.7727V12.0455ZM12.9545 11.8182C12.8943 11.8182 12.8365 11.8421 12.7938 11.8847C12.7512 11.9274 12.7273 11.9852 12.7273 12.0455V14.7727C12.7273 14.8982 12.8291 15 12.9545 15H15.6818C15.7421 15 15.7999 14.9761 15.8425 14.9334C15.8851 14.8908 15.9091 14.833 15.9091 14.7727V12.0455C15.9091 11.9852 15.8851 11.9274 15.8425 11.8847C15.7999 11.8421 15.7421 11.8182 15.6818 11.8182H12.9545Z" fill="black"/>
</svg>
