<svg width="100" height="100" viewBox="0 0 100 100" fill="none" xmlns="http://www.w3.org/2000/svg">
<g clip-path="url(#clip0_4430_53980)">
<path d="M45.8361 95.7693C20.566 95.7693 0.00390625 75.2079 0.00390625 49.9378C0.00390625 24.6676 20.566 4.10547 45.8361 4.10547C54.6233 4.10547 63.1726 6.60936 70.5599 11.3509C72.0102 12.2847 72.4351 14.2179 71.5013 15.6721C70.5644 17.1262 68.635 17.5466 67.1809 16.6135C60.806 12.5174 53.4233 10.3553 45.8361 10.3553C24.0113 10.3553 6.25371 28.113 6.25371 49.9378C6.25371 71.7618 24.0113 89.5194 45.8361 89.5194C67.66 89.5194 85.4176 71.7618 85.4176 49.9378C85.4176 48.6332 85.3551 47.3415 85.2346 46.0713C85.0682 44.3501 86.3263 42.8251 88.0428 42.6588C89.7678 42.5001 91.2883 43.7505 91.4554 45.4671C91.5965 46.938 91.6674 48.4295 91.6674 49.9378C91.6674 75.2079 71.1061 95.7693 45.8361 95.7693Z" fill="#33C19F"/>
<path d="M51.0447 60.354C50.2451 60.354 49.4448 60.0496 48.8368 59.4378L30.0874 40.6883C28.8667 39.4669 28.8667 37.4878 30.0874 36.2672C31.308 35.0465 33.287 35.0465 34.5077 36.2672L51.0492 52.8088L94.6682 9.18894C95.8896 7.96827 97.8686 7.96827 99.0893 9.18894C100.31 10.4096 100.31 12.3886 99.0893 13.6093L53.2571 59.4416C52.6445 60.0496 51.845 60.354 51.0447 60.354Z" fill="#33C19F"/>
</g>
<defs>
<clipPath id="clip0_4430_53980">
<rect width="100" height="100" fill="white"/>
</clipPath>
</defs>
</svg>
