<svg width="20" height="20" viewBox="0 0 20 20" fill="none" xmlns="http://www.w3.org/2000/svg">
<path d="M13.6419 5.53488C13.6419 5.43256 13.5582 5.34884 13.4559 5.34884H12.1884C12.1187 5.34884 12.0535 5.38837 12.0233 5.45116L10.0535 9.37674H9.9768L8.00703 5.45116C7.99161 5.42055 7.96803 5.3948 7.93889 5.37674C7.90976 5.35868 7.8762 5.34903 7.84192 5.34884H6.54657C6.51634 5.34884 6.4861 5.35581 6.4582 5.37209C6.3675 5.42093 6.33494 5.53488 6.38378 5.62326L8.80006 10.0791H7.47448C7.37215 10.0791 7.28843 10.1628 7.28843 10.2651V10.8953C7.28843 10.9977 7.37215 11.0814 7.47448 11.0814H9.24192V11.9884H7.47448C7.37215 11.9884 7.28843 12.0721 7.28843 12.1744V12.8047C7.28843 12.907 7.37215 12.9907 7.47448 12.9907H9.24192V14.4651C9.24192 14.5674 9.32564 14.6512 9.42797 14.6512H10.5884C10.6908 14.6512 10.7745 14.5674 10.7745 14.4651V12.9884H12.5489C12.6512 12.9884 12.7349 12.9047 12.7349 12.8023V12.1721C12.7349 12.0698 12.6512 11.986 12.5489 11.986H10.7745V11.0791H12.5489C12.6512 11.0791 12.7349 10.9953 12.7349 10.893V10.2628C12.7349 10.1605 12.6512 10.0767 12.5489 10.0767H11.2094L13.621 5.62093C13.6326 5.59535 13.6419 5.56512 13.6419 5.53488ZM1.76517 9.8186C1.80886 7.69909 2.67148 5.67881 4.17215 4.1814C4.92797 3.42558 5.80703 2.83023 6.7861 2.41628C7.80006 1.98837 8.8768 1.76977 9.9861 1.76977C11.0977 1.76977 12.1745 1.98605 13.1861 2.41628C14.1652 2.83023 15.0442 3.42558 15.8001 4.1814C16.0326 4.41395 16.2489 4.65814 16.4489 4.91163L15.2861 5.82093C15.2584 5.84236 15.2373 5.87117 15.2253 5.90405C15.2132 5.93693 15.2107 5.97255 15.218 6.0068C15.2253 6.04106 15.2421 6.07256 15.2665 6.09769C15.2909 6.12281 15.3218 6.14054 15.3559 6.14884L19.0024 7.03954C19.1187 7.06744 19.2326 6.97907 19.2326 6.86047L19.2512 3.10465C19.2512 2.94884 19.0722 2.86047 18.9512 2.95814L17.8396 3.82791C16.0163 1.49535 13.1768 0 9.98843 0C4.53494 0 0.100058 4.37442 5.81535e-05 9.8093C-0.000562556 9.83412 0.003791 9.85882 0.0128624 9.88193C0.0219338 9.90504 0.0355395 9.9261 0.0528777 9.94387C0.0702159 9.96165 0.090936 9.97577 0.113817 9.98541C0.136698 9.99505 0.161276 10 0.186105 10H1.58145C1.68145 10 1.76285 9.9186 1.76517 9.8186ZM19.814 10H18.4187C18.3187 10 18.2349 10.0814 18.2326 10.1814C18.1889 12.3009 17.3263 14.3212 15.8256 15.8186C15.0768 16.5706 14.189 17.1701 13.2117 17.5837C12.1977 18.0116 11.121 18.2302 10.0117 18.2302C8.90238 18.2302 7.82331 18.014 6.81169 17.5837C5.83435 17.1701 4.94661 16.5706 4.19773 15.8186C3.96517 15.586 3.7489 15.3419 3.5489 15.0884L4.70936 14.1791C4.73706 14.1576 4.75815 14.1288 4.7702 14.0959C4.78226 14.0631 4.78479 14.0275 4.7775 13.9932C4.77021 13.9589 4.7534 13.9274 4.72901 13.9023C4.70461 13.8772 4.67362 13.8595 4.63959 13.8512L0.993081 12.9605C0.876802 12.9326 0.762849 13.0209 0.762849 13.1395L0.744244 16.9C0.744244 17.0558 0.923314 17.1442 1.04424 17.0465L2.15587 16.1767C3.98378 18.5047 6.82331 20 10.0117 20C15.4652 20 19.9001 15.6256 20.0001 10.1907C20.0007 10.1659 19.9963 10.1412 19.9873 10.1181C19.9782 10.095 19.9646 10.0739 19.9472 10.0561C19.9299 10.0384 19.9092 10.0242 19.8863 10.0146C19.8634 10.005 19.8388 9.99999 19.814 10Z" fill="black"/>
</svg>
